# xmcd
#
# Track frame offsets: 
#        150
#        25960
#        44779
#        76092
#        91056
#        108170
#        132298
#        161769
#        188040
#        216251
#
# Disc length: 3358 seconds
#
# Revision: 0
# Processed by: cddbd v1.5.1PL0 Copyright (c) Steve Scherf et al.
# Submitted via: ExactAudioCopy v0.95a5
#
DISCID=7f0d1c0a
DTITLE=Teddy Pendergrass - The Best Of...Live!
DYEAR=2003
DGENRE=R&B
TTITLE0=Love TKO
TTITLE1=Do Me
TTITLE2=Truly Blessed
TTITLE3=Only You
TTITLE4=Get Up, Get Down, Get Funky, Get Loose
TTITLE5=Joy
TTITLE6=You're My Latest, Greatest Inspiration
TTITLE7=Close The Door
TTITLE8=Turn Off The Lights
TTITLE9=When Somebody Loves You Back
EXTD=
EXTT0=
EXTT1=
EXTT2=
EXTT3=
EXTT4=
EXTT5=
EXTT6=
EXTT7=
EXTT8=
EXTT9=
PLAYORDER=
